<svg xmlns="http://www.w3.org/2000/svg" viewBox="0 0 115.6 133" fill="currentColor" role="img" aria-label="Cysure"><path d="M 55.44,0.17 C 52.64,0.66 50.78,1.36 46.08,3.69 C 41.05,6.19 34,10.08 23.78,16.01 C 18.93,18.84 9.63,24.47 8.74,25.14 C 3.88,28.74 1.31,33.91 0.3,42.05 C 0.03,44.26 -0.02,48.02 0.22,49.89 C 0.61,52.95 1.72,56.02 3.33,58.47 C 4.39,60.08 7.02,62.79 8.85,64.14 C 11.21,65.89 35.83,80.39 44.87,85.34 C 48.53,87.35 54.71,90.42 56.35,91.06 C 60.15,92.52 63.72,92.44 66.49,90.85 C 68.97,89.42 72.33,85.52 74.22,81.89 C 75.59,79.24 75.8,77.89 74.95,77.05 C 74.29,76.38 73.57,76.52 70.58,77.84 C 65.64,80.04 63.53,80.65 60.68,80.65 C 57.95,80.65 56.16,80.2 53.56,78.91 C 48.34,76.28 16.41,56.2 14.34,54.24 C 13.26,53.2 12.58,51.93 12.22,50.24 C 11.89,48.62 11.99,41.54 12.37,40.25 C 13.32,36.97 15.28,34.57 19.09,32 C 25.28,27.82 42.74,17.45 48.28,14.69 C 55.46,11.09 59.77,10.58 65.1,12.68 C 69.43,14.4 79.67,20.48 91.59,28.44 C 99.63,33.82 100.68,34.65 102.11,36.83 C 103.84,39.5 104.05,40.74 103.97,48.48 C 103.94,53.79 103.96,54.54 104.19,55.13 C 105.13,57.49 108.62,61.07 111.28,62.4 C 112.73,63.12 114.13,62.8 114.49,61.67 C 114.75,60.86 115.27,56.82 115.46,53.98 C 115.72,50.48 115.59,41.55 115.24,39.82 C 114.13,34.09 111.63,29.52 107.35,25.37 C 105.02,23.11 103.94,22.37 93.02,15.82 C 80.43,8.27 76.72,6.22 70.5,3.32 C 64.77,0.66 62.87,0.1 59.12,0.01 C 57.51,-0.02 56.24,0.03 55.44,0.17 M 52.91,40.93 C 49.74,41.74 46.03,44.15 43.92,46.79 C 42.02,49.13 40.45,53.06 40.83,54.46 C 40.91,54.76 41.15,55.11 41.34,55.26 C 42.01,55.72 42.64,55.54 45.44,54.14 C 50.98,51.34 54.18,50.82 57.97,52.09 C 60.37,52.89 63.67,54.78 74.72,61.66 C 77.39,63.31 80.94,65.52 82.59,66.56 C 85.76,68.53 93.82,73.66 97.38,75.98 C 102,78.99 103.3,80.38 103.83,82.87 C 104.13,84.21 104.23,87.54 104.02,89.45 C 103.56,94.02 102,96.37 97.24,99.75 C 88.77,105.75 73.54,114.92 66.6,118.18 C 62.32,120.18 60.5,120.74 57.75,120.87 C 54.1,121.04 52.1,120.52 47.39,118.16 C 41.27,115.09 32.54,109.87 23.7,104 C 16.4,99.13 14.18,96.94 13,93.38 C 12.29,91.25 12.16,89.83 12.16,84.31 C 12.16,78.88 12.13,78.61 11.08,76.59 C 9.76,74.02 4.47,69.82 2.58,69.82 C 1.74,69.82 1.04,70.22 0.78,70.84 C -0.09,72.94 -0.3,89.56 0.51,93.3 C 1.85,99.48 5.87,105.33 11.65,109.47 C 19.23,114.9 46.88,130.37 52.16,132.14 C 55.93,133.4 60.58,133.27 64.32,131.82 C 65.63,131.31 72.23,128.02 75.11,126.46 C 80.53,123.49 85.3,120.82 87.85,119.32 C 99.47,112.46 104.83,109.15 106.77,107.64 C 111.18,104.2 114.09,99.05 115.24,92.66 C 115.64,90.45 115.72,85.28 115.4,83.1 C 114.92,79.8 113.89,77.06 112.14,74.42 C 110.83,72.45 108.41,69.95 106.31,68.39 C 102.7,65.73 70.69,45.93 65.24,42.99 C 63.48,42.05 61.52,41.27 59.8,40.87 C 57.73,40.39 54.96,40.41 52.91,40.93"/></svg>