<svg xmlns="http://www.w3.org/2000/svg" viewBox="0 0 490.92 133" fill="currentColor" role="img" aria-label="cysure"><path d="M 55.44,0.17 C 52.64,0.66 50.78,1.36 46.08,3.69 C 41.05,6.19 34,10.08 23.78,16.01 C 18.93,18.84 9.63,24.47 8.74,25.14 C 3.88,28.74 1.31,33.91 0.3,42.05 C 0.03,44.26 -0.02,48.02 0.22,49.89 C 0.61,52.95 1.72,56.02 3.33,58.47 C 4.39,60.08 7.02,62.79 8.85,64.14 C 11.21,65.89 35.83,80.39 44.87,85.34 C 48.53,87.35 54.71,90.42 56.35,91.06 C 60.15,92.52 63.72,92.44 66.49,90.85 C 68.97,89.42 72.33,85.52 74.22,81.89 C 75.59,79.24 75.8,77.89 74.95,77.05 C 74.29,76.38 73.57,76.52 70.58,77.84 C 65.64,80.04 63.53,80.65 60.68,80.65 C 57.95,80.65 56.16,80.2 53.56,78.91 C 48.34,76.28 16.41,56.2 14.34,54.24 C 13.26,53.2 12.58,51.93 12.22,50.24 C 11.89,48.62 11.99,41.54 12.37,40.25 C 13.32,36.97 15.28,34.57 19.09,32 C 25.28,27.82 42.74,17.45 48.28,14.69 C 55.46,11.09 59.77,10.58 65.1,12.68 C 69.43,14.4 79.67,20.48 91.59,28.44 C 99.63,33.82 100.68,34.65 102.11,36.83 C 103.84,39.5 104.05,40.74 103.97,48.48 C 103.94,53.79 103.96,54.54 104.19,55.13 C 105.13,57.49 108.62,61.07 111.28,62.4 C 112.73,63.12 114.13,62.8 114.49,61.67 C 114.75,60.86 115.27,56.82 115.46,53.98 C 115.72,50.48 115.59,41.55 115.24,39.82 C 114.13,34.09 111.63,29.52 107.35,25.37 C 105.02,23.11 103.94,22.37 93.02,15.82 C 80.43,8.27 76.72,6.22 70.5,3.32 C 64.77,0.66 62.87,0.1 59.12,0.01 C 57.51,-0.02 56.24,0.03 55.44,0.17 M 52.91,40.93 C 49.74,41.74 46.03,44.15 43.92,46.79 C 42.02,49.13 40.45,53.06 40.83,54.46 C 40.91,54.76 41.15,55.11 41.34,55.26 C 42.01,55.72 42.64,55.54 45.44,54.14 C 50.98,51.34 54.18,50.82 57.97,52.09 C 60.37,52.89 63.67,54.78 74.72,61.66 C 77.39,63.31 80.94,65.52 82.59,66.56 C 85.76,68.53 93.82,73.66 97.38,75.98 C 102,78.99 103.3,80.38 103.83,82.87 C 104.13,84.21 104.23,87.54 104.02,89.45 C 103.56,94.02 102,96.37 97.24,99.75 C 88.77,105.75 73.54,114.92 66.6,118.18 C 62.32,120.18 60.5,120.74 57.75,120.87 C 54.1,121.04 52.1,120.52 47.39,118.16 C 41.27,115.09 32.54,109.87 23.7,104 C 16.4,99.13 14.18,96.94 13,93.38 C 12.29,91.25 12.16,89.83 12.16,84.31 C 12.16,78.88 12.13,78.61 11.08,76.59 C 9.76,74.02 4.47,69.82 2.58,69.82 C 1.74,69.82 1.04,70.22 0.78,70.84 C -0.09,72.94 -0.3,89.56 0.51,93.3 C 1.85,99.48 5.87,105.33 11.65,109.47 C 19.23,114.9 46.88,130.37 52.16,132.14 C 55.93,133.4 60.58,133.27 64.32,131.82 C 65.63,131.31 72.23,128.02 75.11,126.46 C 80.53,123.49 85.3,120.82 87.85,119.32 C 99.47,112.46 104.83,109.15 106.77,107.64 C 111.18,104.2 114.09,99.05 115.24,92.66 C 115.64,90.45 115.72,85.28 115.4,83.1 C 114.92,79.8 113.89,77.06 112.14,74.42 C 110.83,72.45 108.41,69.95 106.31,68.39 C 102.7,65.73 70.69,45.93 65.24,42.99 C 63.48,42.05 61.52,41.27 59.8,40.87 C 57.73,40.39 54.96,40.41 52.91,40.93 M 177.22,94.15 Q 169.49,94.15 163.25,90.91 Q 157.02,87.67 153.4,81.54 Q 149.78,75.41 149.78,66.77 L 149.78,65.34 Q 149.78,56.68 153.4,50.56 Q 157.02,44.44 163.25,41.2 Q 169.49,37.97 177.22,37.97 Q 184.84,37.97 190.27,40.68 Q 195.71,43.4 199.03,48.06 Q 202.34,52.72 203.36,58.49 L 191.42,61.02 Q 190.97,57.63 189.35,54.88 Q 187.73,52.14 184.79,50.53 Q 181.85,48.92 177.48,48.92 Q 173.11,48.92 169.62,50.85 Q 166.12,52.77 164.1,56.5 Q 162.09,60.22 162.09,65.54 L 162.09,66.58 Q 162.09,71.89 164.1,75.62 Q 166.12,79.34 169.62,81.26 Q 173.11,83.19 177.48,83.19 Q 184.05,83.19 187.46,79.79 Q 190.86,76.39 191.76,71 L 203.7,73.8 Q 202.38,79.39 199.05,84.05 Q 195.71,88.71 190.27,91.43 Q 184.84,94.15 177.22,94.15 M 220.58,114.15 L 220.58,103.37 L 249.89,103.37 Q 252.94,103.37 252.94,100.15 L 252.94,85.29 L 251.12,85.29 Q 250.18,87.25 248.27,89.16 Q 246.35,91.08 243.13,92.31 Q 239.91,93.54 234.94,93.54 Q 228.81,93.54 224.11,90.77 Q 219.41,88.01 216.79,83.01 Q 214.16,78.01 214.16,71.33 L 214.16,39.47 L 226.47,39.47 L 226.47,70.37 Q 226.47,76.83 229.66,79.97 Q 232.85,83.11 238.64,83.11 Q 245.2,83.11 248.98,78.78 Q 252.76,74.44 252.76,66.43 L 252.76,39.47 L 265.07,39.47 L 265.07,102.78 Q 265.07,107.99 262.05,111.07 Q 259.02,114.15 253.84,114.15 L 220.58,114.15 M 301.64,94.15 Q 291.37,94.15 284.69,89.63 Q 278.02,85.11 276.6,76.36 L 288,73.49 Q 288.78,77.6 290.7,79.94 Q 292.63,82.29 295.47,83.29 Q 298.31,84.29 301.64,84.29 Q 306.67,84.29 309.22,82.46 Q 311.77,80.62 311.77,77.77 Q 311.77,74.9 309.35,73.47 Q 306.92,72.04 301.95,71.14 L 298.6,70.55 Q 293.12,69.51 288.6,67.65 Q 284.09,65.78 281.38,62.5 Q 278.67,59.23 278.67,54.09 Q 278.67,46.33 284.39,42.15 Q 290.11,37.97 299.47,37.97 Q 308.4,37.97 314.23,41.96 Q 320.06,45.95 321.81,52.61 L 310.38,56.03 Q 309.48,51.56 306.6,49.69 Q 303.72,47.82 299.47,47.82 Q 295.24,47.82 292.93,49.33 Q 290.62,50.83 290.62,53.55 Q 290.62,56.44 292.96,57.81 Q 295.3,59.17 299.3,59.88 L 302.65,60.47 Q 308.56,61.51 313.35,63.26 Q 318.14,65.02 320.94,68.25 Q 323.73,71.49 323.73,76.97 Q 323.73,85.19 317.74,89.67 Q 311.74,94.15 301.64,94.15 M 355.41,93.54 Q 349.29,93.54 344.59,90.77 Q 339.89,88.01 337.26,83 Q 334.63,77.99 334.63,71.31 L 334.63,39.47 L 346.95,39.47 L 346.95,70.35 Q 346.95,76.81 350.14,79.96 Q 353.33,83.11 359.12,83.11 Q 365.68,83.11 369.46,78.77 Q 373.24,74.42 373.24,66.41 L 373.24,39.47 L 385.55,39.47 L 385.55,92.64 L 373.46,92.64 L 373.46,85.18 L 371.63,85.18 Q 370.23,88.13 366.53,90.83 Q 362.83,93.54 355.41,93.54 M 400.2,92.64 L 400.2,39.47 L 412.3,39.47 L 412.3,45.59 L 414.12,45.59 Q 415.36,42.31 418.14,40.78 Q 420.92,39.26 424.86,39.26 L 431.26,39.26 L 431.26,50.25 L 424.55,50.25 Q 419.26,50.25 415.89,53.1 Q 412.51,55.94 412.51,61.89 L 412.51,92.64 L 400.2,92.64 M 465.46,94.15 Q 457.48,94.15 451.42,90.76 Q 445.36,87.37 441.98,81.19 Q 438.6,75.02 438.6,66.7 L 438.6,65.41 Q 438.6,57.08 441.94,50.91 Q 445.27,44.74 451.27,41.36 Q 457.26,37.97 465.15,37.97 Q 472.91,37.97 478.69,41.39 Q 484.47,44.81 487.7,50.92 Q 490.92,57.03 490.92,65.17 L 490.92,69.58 L 451.09,69.58 Q 451.33,75.82 455.51,79.6 Q 459.69,83.37 465.81,83.37 Q 471.8,83.37 474.72,80.74 Q 477.65,78.12 479.18,74.79 L 489.33,80.03 Q 487.81,82.96 484.96,86.26 Q 482.11,89.56 477.41,91.85 Q 472.72,94.15 465.46,94.15 M 451.2,60.26 L 478.42,60.26 Q 477.99,54.96 474.39,51.85 Q 470.8,48.75 465.06,48.75 Q 459.16,48.75 455.59,51.85 Q 452.03,54.96 451.2,60.26"/></svg>